<svg width="80" height="80" viewBox="0 0 80 80" fill="none" xmlns="http://www.w3.org/2000/svg"><path fill="#D2FFFA" stroke="#7BFFF0" stroke-width="2" d="M79 1v78H1V1z"/><path d="M37 42.049C37 37.604 33.418 34 29 34s-8 3.604-8 8.049c0 4.017 2.925 7.347 6.75 7.951v-5.624h-2.031v-2.327h2.031v-1.773c0-2.018 1.194-3.132 3.022-3.132.875 0 1.79.157 1.79.157v1.981h-1.008c-.994 0-1.304.62-1.304 1.257v1.51h2.219l-.355 2.327H30.25V50c3.825-.604 6.75-3.934 6.75-7.951z" fill="#6472EE"/><path fill-rule="evenodd" clip-rule="evenodd" d="M57.511 45.232c-.036.78-.166 1.204-.274 1.486-.146.373-.32.64-.6.92-.28.28-.546.453-.92.597-.28.11-.706.24-1.486.278-.844.037-1.093.045-3.232.045-2.137 0-2.388-.008-3.232-.045-.78-.038-1.203-.168-1.485-.278a2.447 2.447 0 0 1-.92-.597 2.44 2.44 0 0 1-.599-.92c-.108-.282-.24-.706-.274-1.486-.041-.843-.049-1.097-.049-3.231 0-2.139.008-2.39.049-3.234.034-.78.166-1.203.274-1.487.144-.373.317-.638.6-.918.28-.28.544-.453.92-.599.28-.11.704-.239 1.484-.276.844-.037 1.095-.047 3.232-.047 2.139 0 2.388.01 3.232.047.78.037 1.205.166 1.487.276.373.146.64.32.918.599.282.28.455.545.6.918.109.284.24.707.275 1.487.04.844.049 1.095.049 3.234 0 2.134-.01 2.388-.049 3.231zm1.44-6.53c-.039-.853-.173-1.435-.373-1.942a3.898 3.898 0 0 0-.922-1.418 3.932 3.932 0 0 0-1.416-.922c-.509-.198-1.09-.334-1.942-.371-.853-.041-1.125-.049-3.299-.049-2.172 0-2.446.008-3.299.049-.85.037-1.43.173-1.942.37-.525.206-.97.479-1.415.923a3.93 3.93 0 0 0-.923 1.418c-.198.507-.332 1.09-.373 1.942C43.01 39.554 43 39.827 43 42c0 2.172.01 2.444.047 3.297.04.85.175 1.433.373 1.942.205.525.477.973.923 1.416.444.444.89.719 1.415.924.511.198 1.091.332 1.942.371.853.04 1.127.049 3.299.049 2.174 0 2.446-.01 3.299-.049.853-.039 1.433-.173 1.942-.37.527-.206.973-.48 1.416-.925a3.89 3.89 0 0 0 .922-1.416c.2-.51.334-1.091.373-1.942.04-.853.049-1.125.049-3.297 0-2.174-.01-2.447-.049-3.3zm-2.72-.972a.96.96 0 1 0-1.922 0 .96.96 0 0 0 1.922 0zm-7.898 4.271a2.667 2.667 0 1 0 5.335-.005 2.667 2.667 0 0 0-5.335.005zm-1.44 0a4.109 4.109 0 1 1 8.217-.004 4.109 4.109 0 0 1-8.218.004z" fill="#6472EE"/></svg>