<svg xmlns="http://www.w3.org/2000/svg" width="224" height="168" viewBox="0 0 224 168">
  <defs>
    <style>
      .d{fill:#ffe9e4}.b{fill:#fff}.c{fill:#ffd1c7}.c,.d{stroke:#3a36e4;stroke-linecap:round;stroke-linejoin:round;stroke-width:2px}.e{fill:#3a36e4}
    </style>
  </defs>
  <path d="M114 25C99.3 15.3 79.4-.4 47.6 11-1.7 28.5 3.5 92.6 11 107.5c13.6 26.7 42.4 47.3 75.7 34 30.3-12.2 38.5 26.5 82.8 18.2 33-6.2 54.4-43.9 49.8-91-2.1-21.3-22.1-56.2-58.7-48.8-28.3 5.7-28.1 17.2-46.5 5Z" fill="#ffe9e4"/>
  <path class="b" d="M7.8 54a3.2 3.2 0 0 1-3.2-3.7A12.3 12.3 0 0 1 7 44c2.9-3.5 10.6-5.2 14.6.3.3-5.3 3.9-11.3 12.2-10 5 .9 7.3 5.5 7.5 9 5-5.3 11.9-.6 13 4.4a8.8 8.8 0 0 1 .2 3.5 3.2 3.2 0 0 1-3.2 2.6ZM128 135.5a4.8 4.8 0 0 1-4.8-5.5 18.3 18.3 0 0 1 3.8-9.2c4.3-5.2 15.8-7.8 21.7.5.4-8 5.9-17 18.3-14.9 7.4 1.2 10.8 8.2 11 13.5 7.7-8.1 17.9-1 19.6 6.5a13.2 13.2 0 0 1 .2 5.1 4.8 4.8 0 0 1-4.7 4Z"/>
  <path class="c" d="M70.7 95.6v30.5h84.9V95.3l-84.9.3z"/>
  <path class="b" d="M89.8 113A4.3 4.3 0 0 0 94 108a16.3 16.3 0 0 0-3.4-8.2c-3.8-4.6-14-6.8-19.3.5-.3-7.1-5.2-15-16.2-13.2-6.6 1-9.6 7.2-9.8 12-6.8-7.3-15.9-1-17.4 5.7a11.7 11.7 0 0 0-.2 4.6A4.2 4.2 0 0 0 32 113Z"/>
  <path class="c" d="M99 46.4v7h4.6v-6a2.7 2.7 0 0 1 2.6-2.6h13.9a2.7 2.7 0 0 1 2.6 2.7v6h4.6v-7.1a6.1 6.1 0 0 0-6.1-6.1h-16a6.1 6.1 0 0 0-6.2 6Z"/>
  <path class="c" d="M107 102.2H80a12.4 12.4 0 0 1-12.4-12.4V52.6h91v37.2a12.4 12.4 0 0 1-12.4 12.4h-26.8"/>
  <path class="d" d="M106.9 95.2h12.4v12.4h-12.4z"/>
  <path class="d" d="M110.6 98.9h5v5h-5z"/>
  <path class="b" d="M135.7 60.8a3.2 3.2 0 0 1-3.2-3.6 13 13 0 0 1 2.7-6.7c3-3.6 11.1-5.4 15.2.3.3-5.6 4.2-11.8 12.9-10.4 5.2.8 7.6 5.7 7.8 9.5 5.3-5.7 12.5-.8 13.7 4.5a9.2 9.2 0 0 1 0 3.8 3.2 3.2 0 0 1-3 2.6Z"/>
  <path class="e" d="M198 73.5a1 1 0 0 1-1-1c0-2.2-1.1-3.4-3.4-3.4a1 1 0 0 1 0-2c2.3 0 3.4-1 3.4-3.4a1 1 0 1 1 2 0c0 2.3 1 3.4 3.4 3.4a1 1 0 0 1 0 2c-2.3 0-3.4 1.2-3.4 3.4a1 1 0 0 1-1 1Zm-1-5.4a4.3 4.3 0 0 1 1 1 4.3 4.3 0 0 1 .9-1 4.3 4.3 0 0 1-1-.9 4.3 4.3 0 0 1-.9 1ZM36.9 82.6a1 1 0 0 1-1-1c0-4-2-6.1-6.2-6.1a1 1 0 0 1 0-2c4.1 0 6.2-2 6.2-6.2a1 1 0 0 1 2 0c0 4.1 2 6.2 6.1 6.2a1 1 0 0 1 0 2c-4 0-6.1 2-6.1 6.1a1 1 0 0 1-1 1Zm-2.7-8.1A6.4 6.4 0 0 1 37 77a6.4 6.4 0 0 1 2.6-2.6 6.4 6.4 0 0 1-2.6-2.7 6.4 6.4 0 0 1-2.7 2.7ZM45.3 126.3a1 1 0 0 1-1-1c0-.9-.3-1.2-1.2-1.2a1 1 0 0 1 0-2c.9 0 1.2-.3 1.2-1.2a1 1 0 1 1 2 0c0 .9.4 1.2 1.2 1.2a1 1 0 1 1 0 2c-.8 0-1.2.3-1.2 1.2a1 1 0 0 1-1 1ZM80.4 37.5a1 1 0 0 1-1-1c0-.9-.3-1.2-1.2-1.2a1 1 0 0 1 0-2c.9 0 1.2-.4 1.2-1.3a1 1 0 0 1 2 0c0 1 .3 1.3 1.2 1.3a1 1 0 0 1 0 2c-.9 0-1.2.3-1.2 1.2a1 1 0 0 1-1 1ZM185 99a1 1 0 0 1-1-1c0-.9-.3-1.2-1.2-1.2a1 1 0 0 1 0-2c.9 0 1.2-.4 1.2-1.2a1 1 0 0 1 2 0c0 .8.4 1.2 1.2 1.2a1 1 0 0 1 0 2c-.8 0-1.2.3-1.2 1.2a1 1 0 0 1-1 1Z"/>
</svg>
