<svg width="110" height="79" viewBox="0 0 110 79" fill="none" xmlns="http://www.w3.org/2000/svg">
  <path fill="#D2FFFA" stroke="#7BFFF0" stroke-width="2" d="M1 1h108v77H1z"/>
  <path fill-rule="evenodd" clip-rule="evenodd" d="M53.86 32.33v.1h-7.15a.71.71 0 00-.71.71v11.43a.71.71 0 00.71.72h4.56l-.9 1.82a.72.72 0 001.27.64l1.23-2.46h.99v1.42a.71.71 0 001.43 0V45.3h.98l1.23 2.46a.71.71 0 001.28-.64l-.91-1.82h4.56a.71.71 0 00.71-.72V33.14a.71.71 0 00-.71-.71h-7.15v-.72a.71.71 0 10-1.42 0v.62zm2.87 11.53h4.98v-10H47.43v10h9.3zm-7.57-2.28a.71.71 0 00.86-.02l2.7-2.17.44 1.78a.71.71 0 001.2.34l3.78-3.63v.26a.71.71 0 101.43 0V36a.71.71 0 00-.71-.71H56.7a.71.71 0 000 1.42h.58l-3.03 2.92-.42-1.66a.71.71 0 00-1.14-.38l-3.58 2.85a.71.71 0 00.04 1.14z" fill="#6472EE"/>
</svg>
