<svg width="62" height="110" viewBox="0 0 62 110" fill="none" xmlns="http://www.w3.org/2000/svg">
  <path fill="#D2FFFA" stroke="#7BFFF0" stroke-width="2" d="M61 1v108H1V1z"/>
  <path d="M28 57.05A8.02 8.02 0 0020 49c-4.42 0-8 3.6-8 8.05A8.04 8.04 0 0018.75 65v-5.62h-2.03v-2.33h2.03v-1.77c0-2.02 1.2-3.14 3.02-3.14.88 0 1.8.16 1.8.16v1.98h-1.02c-.99 0-1.3.62-1.3 1.26v1.5h2.22l-.36 2.34h-1.86V65A8.04 8.04 0 0028 57.05z" fill="#6472EE"/>
  <path fill-rule="evenodd" clip-rule="evenodd" d="M48.51 60.23c-.03.78-.16 1.2-.27 1.49-.15.37-.32.64-.6.92-.28.28-.55.45-.92.6-.28.1-.7.24-1.49.27-.84.04-1.1.05-3.23.05-2.14 0-2.39-.01-3.23-.05a4.43 4.43 0 01-1.49-.28 2.45 2.45 0 01-.92-.6 2.44 2.44 0 01-.6-.91c-.1-.28-.24-.7-.27-1.49-.04-.84-.05-1.1-.05-3.23 0-2.14 0-2.39.05-3.23.03-.78.16-1.2.27-1.49.15-.37.32-.64.6-.92.28-.28.55-.45.92-.6.28-.1.7-.24 1.49-.27.84-.04 1.1-.05 3.23-.05 2.14 0 2.39.01 3.23.05.78.03 1.2.16 1.49.27.37.15.64.32.92.6.28.28.45.55.6.92.1.28.24.7.27 1.49.04.84.05 1.1.05 3.23 0 2.14-.01 2.39-.05 3.23zm1.44-6.53a5.81 5.81 0 00-.37-1.94 3.9 3.9 0 00-.92-1.42 3.93 3.93 0 00-1.42-.92c-.5-.2-1.09-.33-1.94-.37C44.45 49 44.17 49 42 49s-2.45 0-3.3.05c-.85.04-1.43.17-1.94.37-.53.2-.97.48-1.42.92-.44.45-.71.9-.92 1.42-.2.5-.33 1.09-.37 1.94-.04.85-.05 1.13-.05 3.3s.01 2.45.05 3.3c.04.85.17 1.43.37 1.94.2.52.48.97.92 1.42.45.44.9.71 1.42.92.5.2 1.09.33 1.94.37.85.04 1.13.05 3.3.05s2.45-.01 3.3-.05a5.88 5.88 0 001.94-.37c.53-.2.97-.48 1.42-.92.44-.45.71-.9.92-1.42.2-.5.33-1.1.37-1.94.04-.85.05-1.13.05-3.3s-.01-2.45-.05-3.3zm-2.72-.97a.96.96 0 10-1.92 0 .96.96 0 001.92 0zM39.33 57a2.67 2.67 0 105.33 0 2.67 2.67 0 00-5.33 0zm-1.44 0a4.1 4.1 0 118.22 0 4.1 4.1 0 01-8.22 0z" fill="#6472EE"/>
</svg>
