<svg width="92" height="52" viewBox="0 0 92 52" fill="none" xmlns="http://www.w3.org/2000/svg">
  <path fill="#D2FFFA" stroke="#7BFFF0" stroke-width="2" d="M1 1h90v50H1z"/>
  <path d="M42.8 33.2a10.7 10.7 0 0010.7-11.4c.7-.6 1.4-1.2 1.9-2-.7.3-1.4.5-2.2.6.8-.5 1.4-1.2 1.7-2.1l-2.4 1a3.7 3.7 0 00-2.8-1.3 3.8 3.8 0 00-3.7 4.7c-3-.2-5.9-1.7-7.7-4a3.9 3.9 0 001.1 5.1c-.6 0-1.1-.2-1.7-.5 0 2 1.3 3.5 3 3.8a3.7 3.7 0 01-1.6.1 3.8 3.8 0 003.5 2.7 7.5 7.5 0 01-5.6 1.6c1.7 1 3.6 1.7 5.8 1.7z" fill="#6472EE"/>
</svg>
